<?xml version="1.0" encoding="utf-8"?>
<!-- Generator: Adobe Illustrator 22.0.1, SVG Export Plug-In . SVG Version: 6.00 Build 0)  -->
<svg version="1.1" id="Layer_1" xmlns="http://www.w3.org/2000/svg" xmlns:xlink="http://www.w3.org/1999/xlink" x="0px" y="0px"
	 viewBox="0 0 747 197" style="enable-background:new 0 0 747 197;" xml:space="preserve">
<style type="text/css">
	.st0{fill:none;stroke:#00FFFF;stroke-width:8;}
	.st1{fill:none;stroke:#00FFFF;stroke-width:7.7761;}
</style>
<g>
	
		<image style="overflow:visible;" width="791" height="241" xlink:href="F95E0DF2C5B19C91.png"  transform="matrix(1 0 0 1 -21 -23)">
	</image>
</g>
<g>
	<path class="st0" d="M560.7,171V24.3c0,0-1.7-4.7,4.7-4.7c6.3,0,16.3,0,16.3,0l56,68v18.7c0,0,0.7,4.3-5,4.3s-32.3,0-32.3,0v60
		c0,0,1,6-5.3,6c-6.3,0-29.3,0-29.3,0S561,177,560.7,171z"/>
	<path class="st1" d="M244,171.1c0,2.7-2.4,4.9-5.3,4.9h-32.8c-2.9,0-5.3-2.2-5.3-4.9V83.9c0-2.7,2.4-4.9,5.3-4.9h32.8
		c2.9,0,5.3,2.2,5.3,4.9V171.1z"/>
	<g>
		<path class="st0" d="M507.3,97.3c0,24.9-20.1,45-45,45c-24.9,0-45-20.1-45-45c0-24.9,20.1-45,45-45
			C487.2,52.3,507.3,72.5,507.3,97.3z"/>
		
			<ellipse transform="matrix(4.583110e-02 -0.9989 0.9989 4.583110e-02 344.5659 554.7356)" class="st0" cx="462.7" cy="97" rx="79.3" ry="79.3"/>
	</g>
	<path class="st0" d="M94.3,169.3v-113c0,0,2.7-31,37.7-38h196.7c0,0,30.3,9,37.7,38H142.7c0,0-11,0.3-9.3,10.7v101.3
		c0,0,1.3,7-4.3,7.3H98.7C98.7,175.7,94.3,176.7,94.3,169.3z"/>
	<path class="st0" d="M728.8,25.7v146.7c0,0,1.7,4.7-4.7,4.7s-16.3,0-16.3,0l-56-68V90.3c0,0-0.7-4.3,5-4.3s32.3,0,32.3,0V26
		c0,0-1-6,5.3-6s29.3,0,29.3,0S728.5,19.7,728.8,25.7z"/>
	<path class="st0" d="M267.3,79h99c0,0-10,36.3-45.7,39.7l57.2,57.2h-49.5l-64.2-64.2V84.7C264.1,84.7,262.3,79,267.3,79z"/>
	<path class="st0" d="M82.3,51.8c0,4-3.2,7.2-7.2,7.2H26.5c-3.9,0-7.2-3.2-7.2-7.2V25.5c0-4,3.2-7.2,7.2-7.2h48.7
		c3.9,0,7.2,3.2,7.2,7.2V51.8z"/>
</g>
</svg>
